<svg width="553" height="412" viewBox="0 0 553 412" fill="none" xmlns="http://www.w3.org/2000/svg">
<path d="M286.214 381.526L494.741 270.107C496.244 269.336 497.51 268.182 498.405 266.763C499.301 265.345 499.793 263.716 499.832 262.046C499.87 260.375 499.453 258.726 498.624 257.269C497.794 255.812 496.583 254.602 495.117 253.765L292.968 134.587C291.421 133.681 289.661 133.192 287.862 133.168C286.064 133.144 284.29 133.586 282.719 134.449L62.1334 256.278C60.6325 257.077 59.3787 258.261 58.5049 259.706C57.6311 261.15 57.1697 262.801 57.1697 264.483C57.1697 266.166 57.6311 267.816 58.5049 269.261C59.3787 270.705 60.6325 271.89 62.1334 272.689L258.824 381.333C263.005 383.633 267.707 384.855 272.494 384.889C277.282 384.923 282 383.766 286.214 381.526V381.526Z" fill="#00275E"/>
<path d="M250.915 216.039C250.915 216.039 208.736 238.246 198.752 291.229C198.752 291.229 239.83 299.812 294.834 254.946" fill="#EB773A"/>
<path d="M250.385 222.796C250.385 222.796 232.394 238.713 227.326 249.947C222.257 261.181 215.643 277.619 215.643 277.619C215.643 277.619 247.322 280.284 277.107 262.307C306.893 244.33 278.5 210.711 250.385 222.796Z" fill="#FFAE46"/>
<path d="M268.265 217.206C267.179 219.005 248.645 229.305 245.177 244.165L251.221 239.647C251.221 239.647 240.944 253.847 236.586 262.018C236.586 262.018 261.651 252.171 260.871 252.762L253.783 258.063C253.783 258.063 272.846 257.665 285.811 246.239C298.775 234.813 280.951 214.885 280.951 214.885L268.265 217.206Z" fill="#FAD374"/>
<path d="M324.202 217.069C324.202 217.069 320.929 238.012 313.925 243.162C306.921 248.312 284.181 265.383 284.181 265.383L280.408 260.466C280.408 260.466 296.087 232.904 298.858 220.736C301.629 208.568 324.202 217.069 324.202 217.069Z" fill="#68E1FD"/>
<path opacity="0.61" d="M324.202 217.069C324.202 217.069 320.929 238.012 313.925 243.162C306.921 248.312 284.181 265.383 284.181 265.383L280.408 260.466C280.408 260.466 296.087 232.904 298.858 220.736C301.629 208.568 324.202 217.069 324.202 217.069Z" fill="#363636"/>
<path d="M301.56 187.597C301.56 187.597 280.227 185.043 273.236 190.344C266.246 195.645 243.493 212.565 243.493 212.565L247.266 217.481C247.266 217.481 278.416 210.051 291.046 210.724C303.676 211.397 301.56 187.597 301.56 187.597Z" fill="#68E1FD"/>
<path opacity="0.61" d="M301.56 187.597C301.56 187.597 280.227 185.043 273.236 190.344C266.246 195.645 243.493 212.565 243.493 212.565L247.266 217.481C247.266 217.481 278.416 210.051 291.046 210.724C303.676 211.397 301.56 187.597 301.56 187.597Z" fill="#363636"/>
<path d="M403.978 152.44C409.617 143.752 414.172 134.423 417.541 124.657C417.541 124.657 405.148 124.795 386.628 130.233C388.104 139.531 395.637 146.947 403.978 152.44Z" fill="#68E1FD"/>
<path d="M354.296 190.185C360.181 185.788 360.844 176.877 355.777 170.281C350.71 163.685 341.832 161.903 335.947 166.301C330.063 170.698 329.4 179.609 334.467 186.205C339.534 192.8 348.412 194.583 354.296 190.185Z" fill="#68E1FD"/>
<path d="M460.82 91.7799C460.82 91.7799 344.128 120.4 284.836 205.135C284.836 205.135 270.911 219.788 277.637 227.932C284.362 236.076 306.782 229.594 306.782 229.594C306.782 229.594 380.459 208.966 460.82 91.7799Z" fill="#68E1FD"/>
<path d="M284.836 205.135C284.836 205.135 270.131 203.377 265.341 206.989C260.551 210.601 244.843 222.301 244.843 222.301L247.447 225.694C247.447 225.694 268.92 220.571 277.609 221.038C286.298 221.505 284.836 205.135 284.836 205.135Z" fill="#68E1FD"/>
<path d="M302.548 228.193C302.548 228.193 300.293 242.627 295.461 246.225C290.629 249.823 274.963 261.538 274.963 261.538L272.373 258.187C272.373 258.187 283.179 239.193 285.087 230.802C286.994 222.411 302.548 228.193 302.548 228.193Z" fill="#68E1FD"/>
<path opacity="0.29" d="M284.836 205.135C284.836 205.135 270.131 203.377 265.341 206.989C260.551 210.601 244.843 222.301 244.843 222.301L247.447 225.694C247.447 225.694 268.92 220.571 277.609 221.038C286.298 221.505 284.836 205.135 284.836 205.135Z" fill="#363636"/>
<path opacity="0.29" d="M302.548 228.193C302.548 228.193 300.293 242.627 295.461 246.225C290.629 249.823 274.963 261.538 274.963 261.538L272.373 258.187C272.373 258.187 283.179 239.193 285.087 230.802C286.994 222.411 302.548 228.193 302.548 228.193Z" fill="#363636"/>
<path d="M404.131 112.421C404.131 112.421 403.728 131.881 424.615 139.091L412.5 152.66C412.5 152.66 386.266 138.116 390.332 119.013L404.131 112.421Z" fill="#68E1FD"/>
<path d="M329.201 157.535C329.201 157.535 329.438 190.495 360.602 199.875L337.458 215.476C337.458 215.476 304.038 204.036 310.235 174.715L329.201 157.535Z" fill="#68E1FD"/>
<path d="M385.531 152.783C387.603 151.235 388.01 148.323 386.44 146.28C384.87 144.237 381.918 143.835 379.846 145.383C377.774 146.932 377.367 149.843 378.937 151.886C380.507 153.93 383.459 154.331 385.531 152.783Z" fill="#68E1FD"/>
<path d="M368.439 177.097C373.865 173.083 374.965 165.491 370.895 160.139C366.825 154.787 359.127 153.703 353.701 157.716C348.274 161.73 347.174 169.322 351.244 174.674C355.314 180.026 363.012 181.111 368.439 177.097Z" fill="#68E1FD"/>
<path opacity="0.61" d="M404.131 112.421C404.131 112.421 403.728 131.881 424.615 139.091L412.5 152.66C412.5 152.66 386.266 138.116 390.332 119.013L404.131 112.421Z" fill="#606060"/>
<path opacity="0.61" d="M329.201 157.535C329.201 157.535 329.438 190.495 360.602 199.875L337.458 215.476C337.458 215.476 304.038 204.036 310.235 174.715L329.201 157.535Z" fill="#606060"/>
<path opacity="0.61" d="M385.531 152.783C387.603 151.235 388.01 148.323 386.44 146.28C384.87 144.237 381.918 143.835 379.846 145.383C377.774 146.932 377.367 149.843 378.937 151.886C380.507 153.93 383.459 154.331 385.531 152.783Z" fill="#606060"/>
<path opacity="0.61" d="M368.439 177.097C373.865 173.083 374.965 165.491 370.895 160.139C366.825 154.787 359.127 153.703 353.701 157.716C348.274 161.73 347.174 169.322 351.244 174.674C355.314 180.026 363.012 181.111 368.439 177.097Z" fill="#606060"/>
<path d="M426.523 237.491C426.153 237.491 425.799 237.635 425.538 237.893C425.277 238.15 425.13 238.5 425.13 238.864C425.13 239.228 425.277 239.577 425.538 239.835C425.799 240.092 426.153 240.237 426.523 240.237C426.892 240.237 427.246 240.092 427.507 239.835C427.769 239.577 427.915 239.228 427.915 238.864C427.915 238.5 427.769 238.15 427.507 237.893C427.246 237.635 426.892 237.491 426.523 237.491Z" fill="white"/>
<path d="M355.979 292.19V293.069C355.979 293.434 356.125 293.783 356.387 294.04C356.648 294.298 357.002 294.443 357.371 294.443C357.741 294.443 358.095 294.298 358.356 294.04C358.617 293.783 358.764 293.434 358.764 293.069V292.19C358.764 291.826 358.617 291.477 358.356 291.219C358.095 290.962 357.741 290.817 357.371 290.817C357.002 290.817 356.648 290.962 356.387 291.219C356.125 291.477 355.979 291.826 355.979 292.19Z" fill="white"/>
<path d="M258.448 314.054V314.933C258.448 315.297 258.595 315.646 258.856 315.904C259.117 316.161 259.471 316.306 259.84 316.306C260.21 316.306 260.564 316.161 260.825 315.904C261.086 315.646 261.233 315.297 261.233 314.933V314.054C261.233 313.69 261.086 313.34 260.825 313.083C260.564 312.825 260.21 312.681 259.84 312.681C259.471 312.681 259.117 312.825 258.856 313.083C258.595 313.34 258.448 313.69 258.448 314.054Z" fill="white"/>
<path d="M349.392 247.104C349.023 247.104 348.669 247.249 348.408 247.506C348.146 247.764 348 248.113 348 248.477C348 248.841 348.146 249.191 348.408 249.448C348.669 249.706 349.023 249.851 349.392 249.851C349.762 249.851 350.116 249.706 350.377 249.448C350.638 249.191 350.785 248.841 350.785 248.477C350.785 248.113 350.638 247.764 350.377 247.506C350.116 247.249 349.762 247.104 349.392 247.104Z" fill="white"/>
<path d="M182.71 244.453C182.341 244.453 181.986 244.598 181.725 244.856C181.464 245.113 181.317 245.462 181.317 245.827C181.317 246.191 181.464 246.54 181.725 246.798C181.986 247.055 182.341 247.2 182.71 247.2C183.079 247.2 183.433 247.055 183.695 246.798C183.956 246.54 184.102 246.191 184.102 245.827C184.102 245.462 183.956 245.113 183.695 244.856C183.433 244.598 183.079 244.453 182.71 244.453Z" fill="white"/>
<path d="M120.131 248.477V249.356C120.131 249.72 120.278 250.07 120.539 250.327C120.8 250.585 121.154 250.729 121.523 250.729C121.893 250.729 122.247 250.585 122.508 250.327C122.769 250.07 122.916 249.72 122.916 249.356V248.477C122.916 248.113 122.769 247.764 122.508 247.506C122.247 247.249 121.893 247.104 121.523 247.104C121.154 247.104 120.8 247.249 120.539 247.506C120.278 247.764 120.131 248.113 120.131 248.477Z" fill="white"/>
<path d="M149.903 291.696C149.533 291.696 149.179 291.841 148.918 292.098C148.657 292.356 148.51 292.705 148.51 293.069C148.51 293.434 148.657 293.783 148.918 294.04C149.179 294.298 149.533 294.443 149.903 294.443C150.272 294.443 150.626 294.298 150.887 294.04C151.148 293.783 151.295 293.434 151.295 293.069C151.295 292.705 151.148 292.356 150.887 292.098C150.626 291.841 150.272 291.696 149.903 291.696Z" fill="white"/>
<path d="M196.008 213.869C195.639 213.869 195.285 214.014 195.024 214.271C194.762 214.529 194.616 214.878 194.616 215.243C194.616 215.607 194.762 215.956 195.024 216.214C195.285 216.471 195.639 216.616 196.008 216.616C196.378 216.616 196.732 216.471 196.993 216.214C197.254 215.956 197.401 215.607 197.401 215.243C197.401 214.878 197.254 214.529 196.993 214.271C196.732 214.014 196.378 213.869 196.008 213.869Z" fill="white"/>
<path d="M264.269 170.156C263.899 170.156 263.545 170.301 263.284 170.558C263.023 170.816 262.876 171.165 262.876 171.529C262.876 171.894 263.023 172.243 263.284 172.5C263.545 172.758 263.899 172.903 264.269 172.903C264.638 172.903 264.992 172.758 265.253 172.5C265.514 172.243 265.661 171.894 265.661 171.529C265.661 171.165 265.514 170.816 265.253 170.558C264.992 170.301 264.638 170.156 264.269 170.156Z" fill="white"/>
<path d="M305.946 341.534C305.577 341.534 305.223 341.679 304.962 341.937C304.7 342.194 304.554 342.543 304.554 342.908C304.554 343.272 304.7 343.621 304.962 343.879C305.223 344.136 305.577 344.281 305.946 344.281C306.316 344.281 306.67 344.136 306.931 343.879C307.192 343.621 307.339 343.272 307.339 342.908C307.339 342.543 307.192 342.194 306.931 341.937C306.67 341.679 306.316 341.534 305.946 341.534Z" fill="white"/>
<path d="M398.144 264.339C389.19 264.339 389.162 278.073 398.144 278.073C407.125 278.073 407.125 264.339 398.144 264.339Z" fill="#FFAE46"/>
<path d="M148.134 256.47C139.18 256.47 139.153 270.203 148.134 270.203C157.116 270.203 157.102 256.47 148.134 256.47Z" fill="#FFAE46"/>
<path d="M281.605 346.794C280.3 345.507 278.529 344.784 276.683 344.784C274.837 344.784 273.066 345.507 271.76 346.794C270.48 348.101 269.753 349.839 269.727 351.656V352.535C269.748 354.352 270.475 356.093 271.76 357.396C273.066 358.684 274.837 359.407 276.683 359.407C278.529 359.407 280.3 358.684 281.605 357.396C282.885 356.09 283.612 354.351 283.638 352.535V351.656C283.618 349.838 282.89 348.098 281.605 346.794V346.794Z" fill="#00AEE1"/>
<path d="M154.219 163.07C170.985 163.07 184.576 149.666 184.576 133.131C184.576 116.596 170.985 103.192 154.219 103.192C137.454 103.192 123.863 116.596 123.863 133.131C123.863 149.666 137.454 163.07 154.219 163.07Z" fill="#68E1FD"/>
<path d="M178.908 116.665C182.111 115.794 185.367 115.124 188.656 114.66C190.307 114.412 191.972 114.257 193.641 114.193C195.374 114.097 197.112 114.198 198.821 114.495C199.81 114.66 200.756 115.015 201.606 115.539C202.119 115.871 202.555 116.307 202.887 116.816C203.236 117.371 203.437 118.004 203.472 118.656C203.484 119.734 203.231 120.799 202.734 121.76C202.34 122.577 201.874 123.358 201.342 124.094C199.23 126.769 196.788 129.172 194.073 131.249C188.86 135.342 183.323 139.016 177.516 142.236C171.77 145.512 165.853 148.487 159.789 151.149C153.724 153.855 147.498 156.194 141.144 158.153C137.942 159.161 134.688 160 131.396 160.666C128.023 161.396 124.596 161.86 121.148 162.053C119.381 162.143 117.61 162.074 115.856 161.847C113.98 161.638 112.154 161.118 110.453 160.309C109.519 159.866 108.663 159.277 107.919 158.565C107.083 157.75 106.483 156.731 106.178 155.612C105.909 154.544 105.909 153.426 106.178 152.358C106.407 151.428 106.758 150.533 107.223 149.693C109.058 146.771 111.417 144.202 114.185 142.113C116.741 140.025 119.476 138.159 122.359 136.537C119.97 138.713 117.693 141.004 115.536 143.403C113.378 145.673 111.588 148.258 110.23 151.067C109.683 152.137 109.555 153.369 109.868 154.527C110.048 154.958 110.335 155.336 110.704 155.626C111.18 155.992 111.705 156.292 112.263 156.519C115.033 157.424 117.975 157.701 120.869 157.329C127.176 156.606 133.383 155.197 139.375 153.127C145.502 151.177 151.476 148.732 157.478 146.26C169.354 141.242 180.721 135.127 191.427 127.995C193.998 126.242 196.374 124.226 198.515 121.979C198.99 121.453 199.418 120.888 199.796 120.29C200.092 119.831 200.291 119.317 200.381 118.78C200.393 118.596 200.356 118.413 200.273 118.249C200.19 118.085 200.063 117.946 199.907 117.846C199.381 117.468 198.792 117.185 198.167 117.008C195.087 116.278 191.918 115.982 188.753 116.129C185.453 116.143 182.181 116.335 178.908 116.665Z" fill="#8CC63F"/>
</svg>
