<svg width="652" height="455" viewBox="0 0 652 455" fill="none" xmlns="http://www.w3.org/2000/svg">
<path d="M43.0143 161.144C97.2895 182.192 127.899 66.4906 177.584 96.9158C219.656 122.679 166.423 192.475 207.235 220.211C261.159 256.858 291.011 120.087 353.209 139.352C429.047 162.841 317.141 320.709 394.265 339.492C453.432 353.902 473.196 235.505 528.834 260.354C595.422 290.092 433.373 407.168 495.762 445.01C550.323 478.103 597.81 421.941 645.157 379.061C647.49 376.948 649.771 374.805 652 372.632V0H7.47856C7.28636 2.09625 7.08122 4.19957 6.86612 6.30811C0.364342 70.0434 -15.2275 138.557 43.0143 161.144Z" fill="white"/>
</svg>
